<svg width="18" height="19" viewBox="0 0 18 19" fill="none" xmlns="http://www.w3.org/2000/svg">
<g clip-path="url(#clip0_436_2136)">
<path d="M11.8355 7.62979C13.0289 6.54174 14.6428 5.07021 14.7899 1.55469H15.8555V0.5H2.14453V1.55469H3.21008C3.35718 5.07021 4.97106 6.54174 6.16447 7.62979C6.96502 8.35967 7.41797 8.8064 7.41797 9.5C7.41797 10.1936 6.96502 10.6403 6.16447 11.3702C4.97106 12.4583 3.35718 13.9298 3.21008 17.4453H2.14453V18.5H15.8555V17.4453H14.7899C14.6428 13.9298 13.0289 12.4583 11.8355 11.3702C11.035 10.6403 10.582 10.1936 10.582 9.5C10.582 8.8064 11.035 8.35967 11.8355 7.62979ZM8.47266 13.4529C8.30978 13.4865 8.14887 13.5354 7.99182 13.6004L4.76177 14.937C5.28926 13.5958 6.13884 12.8208 6.87505 12.1496C7.69665 11.4005 8.47266 10.693 8.47266 9.5V13.4529ZM11.1249 12.1496C11.8612 12.8208 12.7107 13.5958 13.2382 14.9369L10.0082 13.6003C9.85113 13.5354 9.69022 13.4865 9.52734 13.4529V9.5C9.52734 10.693 10.3033 11.4005 11.1249 12.1496ZM4.74325 4.01562C4.48826 3.35121 4.31216 2.54898 4.26607 1.55469H13.7339C13.6878 2.54898 13.5117 3.35121 13.2567 4.01562H4.74325Z" fill="#FBC950"/>
</g>
<defs>
<clipPath id="clip0_436_2136">
<rect width="18" height="18" fill="white" transform="translate(0 0.5)"/>
</clipPath>
</defs>
</svg>
