<svg width="48" height="48" viewBox="0 0 48 48" fill="none" xmlns="http://www.w3.org/2000/svg">
<g clip-path="url(#clip0_422_7178)">
<path d="M30.5625 25.9688V46.5938C30.5625 47.3704 31.1921 48 31.9688 48H46.5C47.2766 48 47.9062 47.3704 47.9062 46.5938V25.9688C47.9062 25.1921 47.2766 24.5625 46.5 24.5625H31.9688C31.1921 24.5625 30.5625 25.1921 30.5625 25.9688Z" fill="#64C83C"/>
<path d="M0.09375 29.7188V46.5938C0.09375 47.3704 0.723375 48 1.5 48H16.0312C16.8079 48 17.4375 47.3704 17.4375 46.5938V29.7188C17.4375 28.9421 16.8079 28.3125 16.0312 28.3125H1.5C0.723375 28.3125 0.09375 28.9421 0.09375 29.7188Z" fill="#6BA7FF"/>
<path d="M28.8729 17.8125C28.6491 17.8125 28.4245 17.7592 28.2186 17.651L23.9993 15.4327L19.7799 17.651C19.3061 17.9001 18.732 17.8586 18.2989 17.5439C17.8659 17.2293 17.6489 16.6961 17.7395 16.1685L18.5454 11.4701L15.1317 8.14275C14.7485 7.76916 14.6105 7.21031 14.7759 6.70125C14.9413 6.19219 15.3814 5.82113 15.9111 5.74416L20.6286 5.05866L22.7382 0.783844C22.9751 0.303937 23.4641 0 23.9993 0C24.5346 0 25.0234 0.303938 25.2603 0.783938L27.37 5.05866L32.0875 5.74416C32.6171 5.82113 33.0572 6.19219 33.2226 6.70125C33.388 7.21031 33.2501 7.76916 32.8667 8.14275L29.4532 11.4701L30.2591 16.1685C30.3495 16.696 30.1326 17.2293 29.6996 17.5439C29.4547 17.7219 29.1645 17.8125 28.8729 17.8125Z" fill="#FFEB3C"/>
<path d="M43.4139 22.5001C43.1901 22.5001 42.9655 22.4467 42.7596 22.3386L39.9377 20.855L37.1156 22.3386C36.6417 22.5877 36.0676 22.5461 35.6346 22.2315C35.2016 21.9169 34.9847 21.3837 35.0751 20.8561L35.6141 17.7137L33.331 15.4882C32.9477 15.1147 32.8097 14.5558 32.9751 14.0467C33.1405 13.5377 33.5806 13.1666 34.1103 13.0897L37.2654 12.6312L38.6765 9.77213C38.9134 9.29213 39.4022 8.98828 39.9375 8.98828C40.4728 8.98828 40.9616 9.29222 41.1985 9.77213L42.6096 12.6312L45.7647 13.0897C46.2944 13.1666 46.7345 13.5377 46.8998 14.0467C47.0653 14.5558 46.9273 15.1147 46.544 15.4882L44.2609 17.7137L44.7998 20.8561C44.8903 21.3836 44.6734 21.9169 44.2403 22.2315C43.9956 22.4095 43.7055 22.5001 43.4139 22.5001Z" fill="#FFD228"/>
<path d="M10.8657 25.3125C10.6418 25.3125 10.4171 25.2591 10.2114 25.151L7.96877 23.972L5.72609 25.151C5.25227 25.4 4.67824 25.3586 4.24512 25.0439C3.81209 24.7293 3.59515 24.1961 3.68571 23.6685L4.11406 21.1713L2.29971 19.4028C1.91646 19.0292 1.77846 18.4703 1.94384 17.9613C2.10931 17.4522 2.54937 17.0811 3.07906 17.0042L5.58649 16.6399L6.70774 14.3678C6.94465 13.8878 7.43356 13.584 7.96877 13.584C8.50399 13.584 8.9929 13.8879 9.22981 14.3678L10.3511 16.6399L12.8585 17.0042C13.3882 17.0811 13.8282 17.4522 13.9937 17.9613C14.1591 18.4703 14.0211 19.0292 13.6378 19.4028L11.8235 21.1713L12.2518 23.6685C12.3423 24.196 12.1255 24.7293 11.6924 25.0439C11.4474 25.2219 11.1573 25.3125 10.8657 25.3125Z" fill="#FFEB3C"/>
<path d="M24 15.4327L28.2194 17.651C28.4252 17.7592 28.6499 17.8125 28.8737 17.8125C29.1652 17.8125 29.4554 17.7219 29.7004 17.5439C30.1334 17.2293 30.3503 16.6961 30.2599 16.1685L29.454 11.4701L32.8675 8.14275C33.2509 7.76916 33.3889 7.21031 33.2234 6.70125C33.0579 6.19219 32.618 5.82113 32.0883 5.74416L27.3708 5.05866L25.261 0.783938C25.0241 0.303938 24.5353 0 24 0V15.4327Z" fill="#FFD228"/>
<path d="M16.0312 22.2188V48H31.9688V22.2188C31.9688 21.4421 31.3391 20.8125 30.5625 20.8125H17.4375C16.6609 20.8125 16.0312 21.4421 16.0312 22.2188Z" fill="#FF6EA0"/>
<path d="M30.5625 20.8125H24V48H31.9688V22.2188C31.9688 21.4421 31.3391 20.8125 30.5625 20.8125Z" fill="#FF4182"/>
<path d="M23.9635 38.8594C23.3164 38.8594 22.7917 38.3347 22.7917 37.6875V30.4219H22.1602C21.513 30.4219 20.9883 29.8972 20.9883 29.25C20.9883 28.6028 21.513 28.0781 22.1602 28.0781H23.9635C24.6107 28.0781 25.1354 28.6028 25.1354 29.25V37.6875C25.1354 38.3347 24.6107 38.8594 23.9635 38.8594Z" fill="#DCF0FF"/>
<path d="M24 38.8578C24.6305 38.8386 25.1361 38.3228 25.1361 37.6877V29.2502C25.1361 28.6151 24.6305 28.0992 24 28.0801V38.8578Z" fill="#BEDCEB"/>
<path d="M38.5857 41.6741C36.9685 41.6741 36.8427 41.6321 36.6853 41.5796C36.3032 41.4522 36.0174 41.1621 35.901 40.7835C35.7056 40.1485 35.9998 39.7633 36.5337 39.0642C36.953 38.5153 37.7333 37.4936 39.0413 35.6247C39.4782 35.0003 39.656 34.5584 39.7271 34.2857L39.7483 34.12C39.7174 33.6263 39.3058 33.2343 38.8045 33.2343C38.3535 33.2343 37.9632 33.5544 37.8767 33.9954C37.752 34.6305 37.1366 35.0441 36.5008 34.9194C35.8659 34.7947 35.452 34.1787 35.5769 33.5437C35.879 32.0063 37.2364 30.8906 38.8046 30.8906C40.6185 30.8906 42.0941 32.3663 42.0941 34.18C42.0941 34.2297 42.091 34.2794 42.0847 34.3286L42.0437 34.6488C42.0386 34.6879 42.0317 34.7266 42.0228 34.7648C41.8646 35.447 41.5075 36.1885 40.9615 36.9687C40.2564 37.9763 39.7007 38.7436 39.2699 39.3263C39.8969 39.3235 40.5947 39.3174 41.2582 39.3091C41.2632 39.3091 41.2682 39.309 41.2732 39.309C41.9136 39.309 42.4366 39.824 42.4447 40.4662C42.4528 41.1133 41.9348 41.6445 41.2876 41.6527C40.093 41.6677 39.2233 41.6741 38.5857 41.6741Z" fill="#BEDCEB"/>
<path d="M12.2812 36.0469C12.2812 34.2376 10.8093 32.7656 9 32.7656C7.43559 32.7656 6.08156 33.8786 5.78034 35.4121C5.65556 36.0472 6.06928 36.6631 6.70434 36.7879C7.33922 36.9124 7.95534 36.4989 8.08013 35.8639C8.166 35.4267 8.55281 35.1094 9 35.1094C9.51694 35.1094 9.9375 35.5299 9.9375 36.0469C9.9375 36.5638 9.51694 36.9844 9 36.9844C8.35284 36.9844 7.82812 37.509 7.82812 38.1562C7.82812 38.8035 8.35284 39.3281 9 39.3281C9.51694 39.3281 9.9375 39.7487 9.9375 40.2656C9.9375 40.7826 9.51694 41.2031 9 41.2031C8.53481 41.2031 8.13572 40.8569 8.07159 40.3979C8.06559 40.3545 8.0625 40.31 8.0625 40.2656C8.0625 39.6184 7.53787 39.0938 6.89062 39.0938C6.24338 39.0938 5.71875 39.6184 5.71875 40.2656C5.71875 40.418 5.72934 40.5714 5.75034 40.7218C5.97516 42.3323 7.37212 43.5469 9 43.5469C10.8093 43.5469 12.2812 42.0749 12.2812 40.2656C12.2812 39.4629 11.9911 38.7271 11.5107 38.1562C11.9911 37.5854 12.2812 36.8496 12.2812 36.0469Z" fill="#DCF0FF"/>
</g>
<defs>
<clipPath id="clip0_422_7178">
<rect width="48" height="48" fill="white"/>
</clipPath>
</defs>
</svg>
