<svg width="18" height="19" viewBox="0 0 18 19" fill="none" xmlns="http://www.w3.org/2000/svg">
<g clip-path="url(#clip0_436_2127)">
<path d="M6.89062 18.5C8.44601 18.5 9.65025 18.3511 10.6162 18.0468C10.5958 17.937 10.582 17.8246 10.582 17.709C10.582 17.1924 10.7968 16.726 11.1401 16.3906C10.7968 16.0553 10.582 15.5889 10.582 15.0723C10.582 14.5556 10.7968 14.0893 11.1401 13.7539C10.7968 13.4185 10.582 12.9522 10.582 12.4355C10.582 11.9189 10.7968 11.4525 11.1401 11.1172C10.7968 10.7818 10.582 10.3155 10.582 9.79883C10.582 9.18854 10.8833 8.65062 11.3413 8.31444C11.0277 8.02728 10.6926 7.76993 10.341 7.54347C10.4838 7.36357 10.582 7.1459 10.582 6.89844C10.582 6.31589 10.1099 5.84375 9.52734 5.84375H4.25391C3.67136 5.84375 3.19922 6.31589 3.19922 6.89844C3.19922 7.14536 3.29713 7.36234 3.43913 7.54196C1.39183 8.86087 0 11.2492 0 13.7539C0 18.0082 3.94753 18.5 6.89062 18.5ZM6.88499 13.3811C6.01254 13.3811 5.30296 12.6715 5.30296 11.799C5.30296 11.1103 5.74791 10.5293 6.36328 10.3124V9.53516C6.36328 9.24374 6.59921 9.00781 6.89062 9.00781C7.18204 9.00781 7.41797 9.24374 7.41797 9.53516V10.316C8.02757 10.5359 8.46703 11.1146 8.46703 11.799C8.46703 12.0906 8.23109 12.3264 7.93968 12.3264C7.64813 12.3264 7.41234 12.0906 7.41234 11.799C7.41234 11.508 7.17586 11.2717 6.88499 11.2717C6.59399 11.2717 6.35765 11.508 6.35765 11.799C6.35765 12.09 6.59399 12.3264 6.88499 12.3264C7.75731 12.3264 8.46703 13.0361 8.46703 13.9084C8.46703 14.5928 8.02757 15.1716 7.41797 15.3916V15.8633C7.41797 16.1547 7.18204 16.3906 6.89062 16.3906C6.59921 16.3906 6.36328 16.1547 6.36328 15.8633V15.395C5.74791 15.1783 5.30296 14.5971 5.30296 13.9084C5.30296 13.617 5.53876 13.3811 5.83031 13.3811C6.12172 13.3811 6.35765 13.617 6.35765 13.9084C6.35765 14.1994 6.59399 14.4357 6.88499 14.4357C7.17586 14.4357 7.41234 14.1994 7.41234 13.9084C7.41234 13.6174 7.17586 13.3811 6.88499 13.3811Z" fill="#FBC950"/>
<path d="M17.209 16.918H12.4277C11.9909 16.918 11.6367 17.2721 11.6367 17.709C11.6367 18.1458 11.9909 18.5 12.4277 18.5H17.209C17.6458 18.5 18 18.1458 18 17.709C18 17.2721 17.6458 16.918 17.209 16.918Z" fill="#FBC950"/>
<path d="M17.209 14.2812H12.4277C11.9909 14.2812 11.6367 14.6354 11.6367 15.0723C11.6367 15.5091 11.9909 15.8633 12.4277 15.8633H17.209C17.6458 15.8633 18 15.5091 18 15.0723C18 14.6354 17.6458 14.2812 17.209 14.2812Z" fill="#FBC950"/>
<path d="M17.209 11.6445H12.4277C11.9909 11.6445 11.6367 11.9987 11.6367 12.4355C11.6367 12.8724 11.9909 13.2266 12.4277 13.2266H17.209C17.6458 13.2266 18 12.8724 18 12.4355C18 11.9987 17.6458 11.6445 17.209 11.6445Z" fill="#FBC950"/>
<path d="M17.209 9.00781H12.4277C11.9909 9.00781 11.6367 9.36198 11.6367 9.79883C11.6367 10.2357 11.9909 10.5898 12.4277 10.5898H17.209C17.6458 10.5898 18 10.2357 18 9.79883C18 9.36198 17.6458 9.00781 17.209 9.00781Z" fill="#FBC950"/>
<path d="M8.37557 1.55469C8.15708 0.9422 7.57728 0.5 6.89063 0.5C6.20316 0.5 5.61663 0.940826 5.39869 1.55469H3.72657C3.55711 1.55469 3.39794 1.63599 3.29865 1.77359C3.19978 1.91106 3.17245 2.08821 3.22656 2.24889L4.04984 4.78906H9.73156L10.5547 2.24889C10.6088 2.08821 10.5815 1.91106 10.4826 1.77359C10.3833 1.63599 10.2242 1.55469 10.0547 1.55469H8.37557Z" fill="#FBC950"/>
</g>
<defs>
<clipPath id="clip0_436_2127">
<rect width="18" height="18" fill="white" transform="translate(0 0.5)"/>
</clipPath>
</defs>
</svg>
